<?xml version="1.0" encoding="utf-8"?>
<!-- Generator: Adobe Illustrator 16.0.0, SVG Export Plug-In . SVG Version: 6.00 Build 0)  -->
<!DOCTYPE svg PUBLIC "-//W3C//DTD SVG 1.1//EN" "http://www.w3.org/Graphics/SVG/1.1/DTD/svg11.dtd">
<svg version="1.1" id="Layer_1" xmlns="http://www.w3.org/2000/svg" xmlns:xlink="http://www.w3.org/1999/xlink" x="0px" y="0px"
	 width="1920px" height="800px" viewBox="0 0 1920 800" enable-background="new 0 0 1920 800" xml:space="preserve">
<path fill="#E6E6E6" d="M1258.113,618.829c42.844-65.005,65.005-141.09,65.005-218.652c0-111.542-46.537-217.913-128.532-293.259
	C1032.813-43.774,779.443-33.433,629.489,128.34c-140.813,151.91-140.924,384.588-6.462,536.561
	C657.6,531.468,778.822,432.928,923.065,432.928c144.065,0,265.162,98.298,299.905,231.479c1.883-2.121,3.752-4.258,5.596-6.427
	C1239.646,645.422,1249.249,632.865,1258.113,618.829z"/>
<circle fill="#A5A5A5" cx="923.066" cy="306.584" r="166.497"/>
<path fill="#A5A5A5" d="M923.065,432.928c-144.244,0-265.466,98.54-300.038,231.973c8.729,9.866,18.021,19.395,27.884,28.536
	c8.126,7.387,16.251,14.773,25.115,21.422c19.206,14.773,39.151,28.07,60.573,39.15c8.864,5.171,17.729,9.603,27.331,13.296
	c18.468,7.388,36.935,14.035,56.141,19.206c33.979,8.864,68.698,13.297,103.416,13.297c12.558,0,25.115,0,37.673-1.478
	c53.925-5.171,107.11-21.422,155.125-48.015c8.864-5.171,17.729-10.342,26.593-16.251c29.433-19.85,56.321-42.879,80.093-69.658
	C1188.228,531.226,1067.131,432.928,923.065,432.928z"/>
</svg>
